# xmcd
#
# Track frame offsets:
#	150
#	12868
#	24081
#	37453
#	53852
#	66031
#	83562
#	98662
#	111599
#	128488
#	142838
#	157983
#	172613
#	192348
#	207713
#	227098
#	241963
#	257034
#	272138
#	284505
#
# Disc length: 3990 seconds
#
# Revision: 0
# Processed by: cddbd v1.4PL0 Copyright (c) Steve Scherf et al.
# Submitted via: audiograbber 1.81.02
#
DISCID=110f9414
DTITLE=Claude Francois - Claude Francois cd 1
DYEAR=1900
DGENRE=
TTITLE0=Si j'avais un marteau
TTITLE1=Bye Bye Petite Julie
TTITLE2=Le lundi au soleil
TTITLE3=Y'a le printemps qui chante
TTITLE4=Belinda
TTITLE5=Sha La La
TTITLE6=Je t'embrasse
TTITLE7=C'est toujours le meme refrain
TTITLE8=17 Ans
TTITLE9=Une chanson francaise
TTITLE10=Le chanteur malheureux
TTITLE11=Cette annee-la
TTITLE12=Alexandrie Alexandra
TTITLE13=Je vais a Rio
TTITLE14=Magnolias For Ever
TTITLE15=Laisse une chance a notre amour
TTITLE16=C'est comme ca que l'on s'est aime
TTITLE17=Comme une chanson triste
TTITLE18=Des pleurs sur l'oreiller
TTITLE19=Keep On Driving
EXTD=
EXTT0=
EXTT1=
EXTT2=
EXTT3=
EXTT4=
EXTT5=
EXTT6=
EXTT7=
EXTT8=
EXTT9=
EXTT10=
EXTT11=
EXTT12=
EXTT13=
EXTT14=
EXTT15=
EXTT16=
EXTT17=
EXTT18=
EXTT19=
PLAYORDER=
